# AST/ASF file generated using VICON BodyLanguage
# -----------------------------------------------
:version 1.10
:name VICON
:units
  mass 1.0
  length 0.45
  angle deg
:documentation
   .ast/.asf automatically generated from VICON data using
   VICON BodyBuilder and BodyLanguage model FoxedUp or BRILLIANT.MOD
:root
   order TX TY TZ RX RY RZ
   axis XYZ
   position 0 0 0  
   orientation 0 0 0 
:bonedata
  begin
     id 1 
     name lhipjoint
     direction 0.584852 -0.759097 0.285867 
     length 2.43633 
     axis 0 0 0  XYZ
  end
  begin
     id 2 
     name lfemur
     direction 0.34202 -0.939693 0  
     length 7.14704  
     axis 0 0 20  XYZ
    dof rx ry rz
    limits (-160.0 20.0)
           (-70.0 70.0)
           (-60.0 70.0)
  end
  begin
     id 3 
     name ltibia
     direction 0.342022 -0.939692 0   
     length 7.68483   
     axis 0 0 20   XYZ
    dof rx
    limits (-10.0 170.0)
  end
  begin
     id 4 
     name lfoot
     direction 0.0999605 -0.274639 0.956337   
     length 2.40452   
     axis -90 7.62852e-016 20   XYZ
    dof rx rz
    limits (-45.0 90.0)
           (-70.0 20.0)
  end
  begin
     id 5 
     name ltoes
     direction 1.53468e-011 -4.21881e-011 1   
     length 1.19837   
     axis -90 7.62852e-016 20   XYZ
    dof rx
    limits (-90.0 20.0)
  end
  begin
     id 6 
     name rhipjoint
     direction -0.569886 -0.769002 0.289597   
     length 2.40495  
     axis 0 0 0  XYZ 
  end
  begin
     id 7 
     name rfemur
     direction -0.34202 -0.939693 0   
     length 7.45086   
     axis 0 0 -20   XYZ
    dof rx ry rz
    limits (-160.0 20.0)
           (-70.0 70.0)
           (-70.0 60.0)
  end
  begin
     id 8 
     name rtibia
     direction -0.34202 -0.939693 0   
     length 7.76831   
     axis 0 0 -20   XYZ
    dof rx
    limits (-10.0 170.0)
 end
 begin
     id 9 
     name rfoot
     direction -0.0798572 -0.219406 0.97236   
     length 2.35911  
     axis -90 -7.62852e-016 -20   XYZ
    dof rx rz
    limits (-45.0 90.0)
           (-20.0 70.0)
  end
  begin
     id 10 
     name rtoes
     direction -1.53469e-011 -4.21728e-011 1   
     length 1.18261   
     axis -90 -7.62852e-016 -20   XYZ
    dof rx
    limits (-90.0 20.0)
  end
  begin
     id 11 
     name lowerback
     direction 0.0242088 0.999437 0.0232389   
     length 2.1561   
     axis 0 0 0   XYZ
    dof rx ry rz
    limits (-20.0 45.0)
           (-30.0 30.0)
           (-30.0 30.0)
  end
  begin
     id 12 
     name upperback
     direction -0.0356893 0.999013 -0.0264323   
     length 2.14431   
     axis 0 0 0   XYZ
    dof rx ry rz
    limits (-20.0 45.0)
           (-30.0 30.0)
           (-30.0 30.0)
  end
  begin
     id 13 
     name thorax
     direction -0.0472163 0.998194 -0.0371284   
     length 2.16169   
     axis 0 0 0   XYZ
    dof rx ry rz
    limits (-20.0 45.0)
           (-30.0 30.0)
           (-30.0 30.0)
  end
  begin
     id 14 
     name lowerneck
     direction 0.00863244 0.999921 0.00911972   
     length 1.58651   
     axis 0 0 0   XYZ
    dof rx ry rz
    limits (-20.0 45.0)
           (-30.0 30.0)
           (-30.0 30.0)
  end
  begin
     id 15 
     name upperneck
     direction 0.149523 0.979068 -0.138086   
     length 1.57486   
     axis 0 0 0   XYZ
    dof rx ry rz
    limits (-20.0 45.0)
           (-30.0 30.0)
           (-30.0 30.0)
  end
  begin
     id 16
     name head
     direction 0.0445219 0.997708 -0.0509576  
     length 1.6019  
     axis 0 0 0   XYZ
    dof rx ry rz
    limits (-20.0 45.0)
           (-30.0 30.0)
           (-30.0 30.0)
  end
  begin
     id 17 
     name lclavicle
     direction 0.911271 0.381667 -0.154644  
     length 3.80848  
     axis 0 0 0   XYZ
    dof ry rz
    limits (-20.0 10.0)
           (0.0 20.0)
  end
  begin
     id 18 
     name lhumerus
     direction 1 -4.49003e-011 2.1308e-027   
     length 5.19069   
     axis 180 -30 -90   XYZ
    dof rx ry rz
    limits (-60.0 90.0)
           (-90.0 90.0)
           (-90.0 90.0)
  end
  begin
     id 19
     name lradius
     direction 1 -4.48914e-011 4.01554e-027   
     length 3.30016   
     axis 180 -30 -90   XYZ
    dof rx
    limits (-10.0 170.0)
  end
  begin
     id 20
     name lwrist
     direction 1 -4.49003e-011 1.1934e-026   
     length 1.65008   
     axis -8.46377e-015 90 90   XYZ
    dof ry
    limits (-180.0 0.0)
 end
  begin
     id 21 
     name lhand
     direction 1 -4.49034e-011 2.38659e-026   
     length 0.707698   
     axis -1.52313e-014 90 90   XYZ
    dof rx rz
    limits (-90.0 90.0)
           (-45.0 45.0)
  end
  begin
     id 22 
     name lfingers
     direction 1 -4.48691e-011 4.77775e-026   
     length 0.570564   
     axis -3.04623e-014 90 90   XYZ
    dof rx
    limits (0.0 90.0)
  end
  begin
     id 23
     name lthumb
     direction 0.707107 -6.34832e-011 0.707107   
     length 0.819219   
     axis -90 45 -1.62303e-014   XYZ
    dof rx rz
    limits (-45.0 45.0)
           (-45.0 45.0)
  end
  begin
     id 24 
     name rclavicle
     direction -0.815579 0.573708 -0.0754329   
     length 3.54371  
     axis 0 0 0   XYZ 
    dof ry rz
    limits (-10.0 20.0)
           (-20.0 0.0)
  end
  begin
     id 25 
     name rhumerus
     direction -1 -4.48956e-011 3.05351e-028  
     length 5.23924   
     axis 180 30 90   XYZ
    dof rx ry rz
    limits (-90.0 60.0)
           (-90.0 90.0)
           (-90.0 90.0)
  end
  begin
     id 26 
     name rradius
     direction -1 -4.49013e-011 3.53849e-027   
     length 3.32953   
     axis 180 30 90   XYZ
    dof rx
    limits (-10.0 170.0)
  end
  begin
     id 27 
     name rwrist
     direction -1 -4.48901e-011 1.19374e-026   
     length 1.66477   
     axis -8.46377e-015 -90 -90   XYZ
    dof ry
    limits (-180.0 0.0)
  end
  begin
     id 28
     name rhand
     direction -1 -4.48877e-011 2.38764e-026   
     length 0.607414   
     axis -1.52313e-014 -90 -90   XYZ
    dof rx rz
    limits (-90.0 90.0)
           (-45.0 45.0)
  end
  begin
     id 29
     name rfingers
     direction -1 -4.48882e-011 4.77521e-026   
     length 0.489712   
     axis -3.04623e-014 -90 -90   XYZ
    dof rx
    limits (0.0 90.0)
  end
  begin
     id 30
     name rthumb
     direction -0.707107 -6.34974e-011 0.707107   
     length 0.703132   
     axis -90 -45 1.62303e-014   XYZ
    dof rx rz
    limits (-45.0 45.0)
           (-45.0 45.0)
  end
:hierarchy
  begin
    root lhipjoint rhipjoint lowerback
    lhipjoint lfemur
    lfemur ltibia
    ltibia lfoot
    lfoot ltoes
    rhipjoint rfemur
    rfemur rtibia
    rtibia rfoot
    rfoot rtoes
    lowerback upperback
    upperback thorax
    thorax lowerneck lclavicle rclavicle
    lowerneck upperneck
    upperneck head
    lclavicle lhumerus
    lhumerus lradius
    lradius lwrist
    lwrist lhand lthumb
    lhand lfingers
    rclavicle rhumerus
    rhumerus rradius
    rradius rwrist
    rwrist rhand rthumb
    rhand rfingers
  end

#!OML:ASF E:\VariousWalksJay\Project 1\Capture day 1\Session 1\Actor2.ASF
:FULLY-SPECIFIED
:DEGREES
117
root 28.83 16.0156 -29.1828 16.9311 -49.4262 -4.59727
lowerback 33.8314 -3.28943 5.12357
upperback 17.2266 -3.8298 -1.87725
thorax 1.3085 -1.89223 -3.5657
lowerneck -3.92928 4.14082 3.61988
upperneck -19.491 5.06612 -2.8345
head -5.05492 2.28357 -1.63244
rclavicle 3.81667e-014 -4.73108e-014
rhumerus -27.7685 28.9736 -87.9813
rradius 105.011
rwrist 20.0591
rhand -35.2854 -8.64402
rfingers 7.12502
rthumb -8.42017 -38.4562
lclavicle 3.81667e-014 -4.73108e-014
lhumerus 44.2126 -20.655 53.0075
lradius 76.7121
lwrist 54.3681
lhand -35.5942 14.4861
lfingers 7.12502
lthumb -8.71817 44.286
rfemur -50.3776 4.07438 21.0118
rtibia 63.5282
rfoot -25.7374 -13.2257
rtoes -9.71536
lfemur -56.6929 15.7237 -26.1214
ltibia 60.6341
lfoot -18.3234 11.7435
ltoes -5.6186
118
root 28.833 16.0116 -29.1843 17.0017 -49.3353 -4.56874
lowerback 33.7753 -3.27502 5.07567
upperback 17.2076 -3.82063 -1.79168
thorax 1.31654 -1.89438 -3.45586
lowerneck -4.04038 4.12861 3.63577
upperneck -19.3435 5.03573 -2.90008
head -4.98916 2.27335 -1.64926
rclavicle -8.42847e-014 6.52014e-014
rhumerus -27.7116 29.0334 -87.7894
rradius 105.047
rwrist 20.0039
rhand -35.2369 -8.59367
rfingers 7.12502
rthumb -8.3734 -38.4077
lclavicle -8.42847e-014 6.52014e-014
lhumerus 44.4245 -20.7175 52.4592
lradius 76.7635
lwrist 54.8476
lhand -35.7775 14.4797
lfingers 7.12502
lthumb -8.89513 44.2722
rfemur -50.508 3.96645 21.0135
rtibia 63.5762
rfoot -25.7741 -13.2269
rtoes -9.76625
lfemur -56.9774 15.6776 -26.2738
ltibia 60.8255
lfoot -18.3371 12.0412
ltoes -5.49849
119
root 28.8361 16.0058 -29.1858 17.068 -49.2469 -4.53532
lowerback 33.7245 -3.25718 5.01614
upperback 17.1857 -3.80989 -1.70347
thorax 1.32015 -1.8968 -3.33733
lowerneck -4.17061 4.1187 3.65771
upperneck -19.1649 5.00795 -2.96845
head -4.91042 2.2645 -1.66701
rclavicle -2.38542e-015 3.49861e-014
rhumerus -27.653 29.1003 -87.5854
rradius 105.083
rwrist 19.9414
rhand -35.1953 -8.5551
rfingers 7.12502
rthumb -8.33323 -38.3707
lclavicle -2.38542e-015 3.49861e-014
lhumerus 44.6952 -20.8431 51.5896
lradius 76.8811
lwrist 55.5523
lhand -36.0715 14.4288
lfingers 7.12502
lthumb -9.17876 44.2091
rfemur -50.6548 3.85718 21.0105
rtibia 63.654
rfoot -25.822 -13.222
rtoes -9.82569
lfemur -57.293 15.6606 -26.4699
ltibia 61.0467
lfoot -18.4045 12.3882
ltoes -5.28434
120
root 28.8392 15.9982 -29.186 17.1223 -49.1774 -4.50777
lowerback 33.6881 -3.23496 4.95083
upperback 17.1659 -3.79572 -1.61944
thorax 1.32121 -1.89803 -3.22062
lowerneck -4.32019 4.11296 3.69738
upperneck -18.9532 4.98421 -3.04809
head -4.81748 2.25742 -1.69022
rclavicle 7.95139e-016 4.09496e-014
rhumerus -27.5894 29.1776 -87.3719
rradius 105.116
rwrist 19.8719
rhand -35.1844 -8.56492
rfingers 7.12502
rthumb -8.32271 -38.381
lclavicle 7.95139e-016 4.09496e-014
lhumerus 44.9997 -21.0141 50.4714
lradius 77.0622
lwrist 56.4117
lhand -36.5344 14.2872
lfingers 7.12502
lthumb -9.62548 44.0473
rfemur -50.7957 3.75348 21.005
rtibia 63.7576
rfoot -25.8819 -13.1986
rtoes -9.88534
lfemur -57.6155 15.6908 -26.7062
ltibia 61.2948
lfoot -18.541 12.7841
ltoes -4.96607
121
root 28.8421 15.9892 -29.1849 17.1638 -49.1268 -4.48789
lowerback 33.6654 -3.20877 4.88177
upperback 17.1519 -3.77853 -1.54171
thorax 1.32356 -1.898 -3.10907
lowerneck -4.48447 4.1102 3.75777
upperneck -18.7203 4.96258 -3.14084
head -4.7148 2.25079 -1.72022
rclavicle -2.38542e-015 3.45885e-014
rhumerus -27.5177 29.263 -87.1497
rradius 105.146
rwrist 19.7958
rhand -35.1614 -8.54157
rfingers 7.12502
rthumb -8.30053 -38.3585
lclavicle -2.38542e-015 3.45885e-014
lhumerus 45.3273 -21.1909 49.1852
lradius 77.2958
lwrist 57.3623
lhand -37.1061 14.0836
lfingers 7.12502
lthumb -10.177 43.8174
rfemur -50.9254 3.65674 20.999
rtibia 63.8807
rfoot -25.951 -13.1592
rtoes -9.93668
lfemur -57.9332 15.7617 -26.9738
ltibia 61.56
lfoot -18.7403 13.2249
ltoes -4.56271
122
root 28.8452 15.9788 -29.1826 17.2 -49.0909 -4.47925
lowerback 33.6468 -3.18158 4.81495
upperback 17.1448 -3.76068 -1.46921
thorax 1.33153 -1.8974 -3.00447
lowerneck -4.66195 4.11241 3.82774
upperneck -18.4694 4.94681 -3.24018
head -4.60403 2.24683 -1.75331
rclavicle 2.8625e-014 -7.4743e-014
rhumerus -27.4364 29.3594 -86.9164
rradius 105.174
rwrist 19.7144
rhand -35.1916 -8.60505
rfingers 7.12502
rthumb -8.32964 -38.4208
lclavicle 2.8625e-014 -7.4743e-014
lhumerus 45.6404 -21.3409 47.8981
lradius 77.5486
lwrist 58.2825
lhand -37.6118 13.9454
lfingers 7.12502
lthumb -10.6648 43.6547
rfemur -51.0494 3.56327 20.9967
rtibia 64.0215
rfoot -26.0226 -13.1118
rtoes -10.0124
lfemur -58.2451 15.8606 -27.2603
ltibia 61.8345
lfoot -18.9799 13.6986
ltoes -4.10674
123
root 28.8485 15.9672 -29.1793 17.2265 -49.0708 -4.48283
lowerback 33.6403 -3.15023 4.74616
upperback 17.1447 -3.73916 -1.39855
thorax 1.34313 -1.89533 -2.90161
lowerneck -4.84864 4.11836 3.9089
upperneck -18.2053 4.93409 -3.35455
head -4.48709 2.2444 -1.79245
rclavicle 1.82882e-014 2.94201e-014
rhumerus -27.3468 29.4663 -86.6679
rradius 105.208
rwrist 19.6229
rhand -35.2156 -8.68173
rfingers 7.12502
rthumb -8.35282 -38.4966
lclavicle 1.82882e-014 2.94201e-014
lhumerus 45.9012 -21.4539 46.8112
lradius 77.7695
lwrist 59.0225
lhand -38.1202 13.7682
lfingers 7.12502
lthumb -11.1552 43.4517
rfemur -51.1604 3.47478 20.9992
rtibia 64.1763
rfoot -26.099 -13.0526
rtoes -10.0863
lfemur -58.5338 15.9779 -27.5495
ltibia 62.1073
lfoot -19.2417 14.1893
ltoes -3.6345
124
root 28.8523 15.9545 -29.1748 17.2463 -49.0545 -4.49802
lowerback 33.6366 -3.12273 4.68841
upperback 17.1547 -3.72062 -1.33089
thorax 1.36399 -1.89395 -2.80708
lowerneck -5.20896 4.13235 3.99283
upperneck -17.4311 4.95058 -3.36212
head -4.69986 2.23841 -1.95186
rclavicle 9.62118e-014 -5.32743e-014
rhumerus -27.2421 29.5789 -86.4074
rradius 105.238
rwrist 19.5342
rhand -35.2384 -8.74541
rfingers 7.12502
rthumb -8.37482 -38.5594
lclavicle 9.62118e-014 -5.32743e-014
lhumerus 46.1097 -21.5029 45.9814
lradius 77.9293
lwrist 59.5574
lhand -38.4628 13.6785
lfingers 7.12502
lthumb -11.4856 43.3438
rfemur -51.2624 3.38112 21.0087
rtibia 64.3475
rfoot -26.1765 -12.9933
rtoes -10.2008
lfemur -58.7936 16.09 -27.8243
ltibia 62.3716
lfoot -19.5129 14.6767
ltoes -3.18372
125
root 28.8569 15.9409 -29.1699 17.2672 -49.0347 -4.52388
lowerback 33.632 -3.09806 4.63969
upperback 17.1707 -3.70372 -1.26192
thorax 1.39127 -1.89289 -2.71572
lowerneck -5.38079 4.13729 4.08162
upperneck -17.194 4.9347 -3.49638
head -4.57315 2.23441 -2.00063
rclavicle 1.22451e-013 1.63003e-014
rhumerus -27.1282 29.6959 -86.1342
rradius 105.269
rwrist 19.4462
rhand -35.2689 -8.82517
rfingers 7.12502
rthumb -8.4043 -38.638
lclavicle 1.22451e-013 1.63003e-014
lhumerus 46.2924 -21.4837 45.34
lradius 78.033
lwrist 59.959
lhand -38.6251 13.7192
lfingers 7.12502
lthumb -11.6421 43.3757
rfemur -51.3658 3.28162 21.0267
rtibia 64.5352
rfoot -26.2533 -12.9384
rtoes -10.3486
lfemur -59.0231 16.1717 -28.0665
ltibia 62.6192
lfoot -19.7884 15.1505
ltoes -2.76305
